<?xml version="1.0" encoding="UTF-8" standalone="no"?>
<!DOCTYPE svg PUBLIC "-//W3C//DTD SVG 1.1//EN" "http://www.w3.org/Graphics/SVG/1.1/DTD/svg11.dtd">
<svg width="100%" height="100%" viewBox="0 0 1975 522" version="1.1" xmlns="http://www.w3.org/2000/svg" xmlns:xlink="http://www.w3.org/1999/xlink" xml:space="preserve" xmlns:serif="http://www.serif.com/" style="fill-rule:evenodd;clip-rule:evenodd;stroke-linejoin:round;stroke-miterlimit:2;">
    <g transform="matrix(4.16667,0,0,4.16667,-246.31,-1319.1)">
        <g id="Layer-1" serif:id="Layer 1">
            <g transform="matrix(1,0,0,1,173.762,359.287)">
                <path d="M0,13.089C0.187,13.976 0.595,14.711 1.225,15.294C1.855,15.877 2.637,16.169 3.57,16.169C4.316,16.169 4.929,16.029 5.407,15.749C5.885,15.469 6.265,15.09 6.545,14.612C6.825,14.133 7.023,13.574 7.14,12.932C7.256,12.29 7.314,11.608 7.314,10.884L7.314,-6.16L10.779,-6.16L10.779,11.024C10.779,11.888 10.686,12.798 10.499,13.754C10.313,14.711 9.962,15.598 9.449,16.414C8.936,17.231 8.219,17.907 7.297,18.444C6.375,18.98 5.191,19.249 3.745,19.249C1.855,19.249 0.315,18.759 -0.875,17.779C-2.065,16.799 -2.847,15.539 -3.22,13.999L0,13.089Z" style="fill:rgb(26,23,27);fill-rule:nonzero;"/>
            </g>
            <g transform="matrix(1,0,0,1,193.536,375.841)">
                <path d="M0,-0.035C0,0.572 -0.222,1.108 -0.665,1.575C-1.109,2.042 -1.668,2.275 -2.345,2.275C-2.998,2.275 -3.552,2.047 -4.007,1.593C-4.462,1.138 -4.69,0.607 -4.69,-0C-4.69,-0.63 -4.468,-1.173 -4.024,-1.628C-3.582,-2.082 -3.022,-2.31 -2.345,-2.31C-1.668,-2.31 -1.109,-2.088 -0.665,-1.645C-0.222,-1.202 0,-0.665 0,-0.035" style="fill:rgb(26,23,27);fill-rule:nonzero;"/>
            </g>
            <g transform="matrix(1,0,0,1,201.515,366.952)">
                <path d="M0,-2.87L3.675,-2.87C4.515,-2.87 5.29,-2.945 6.003,-3.098C6.714,-3.249 7.326,-3.482 7.84,-3.797C8.353,-4.112 8.75,-4.526 9.03,-5.04C9.309,-5.552 9.45,-6.183 9.45,-6.929C9.45,-7.676 9.304,-8.3 9.012,-8.802C8.72,-9.304 8.324,-9.712 7.822,-10.027C7.32,-10.342 6.72,-10.563 6.02,-10.692C5.32,-10.82 4.562,-10.884 3.745,-10.884L0,-10.884L0,-2.87ZM-3.464,-13.824L4.095,-13.824C5.425,-13.824 6.638,-13.689 7.735,-13.421C8.831,-13.153 9.764,-12.739 10.535,-12.179C11.304,-11.619 11.899,-10.907 12.319,-10.044C12.739,-9.181 12.949,-8.142 12.949,-6.929C12.949,-5.693 12.722,-4.631 12.267,-3.745C11.812,-2.858 11.182,-2.135 10.377,-1.575C9.572,-1.015 8.615,-0.6 7.507,-0.332C6.399,-0.064 5.203,0.07 3.92,0.07L0,0.07L0,10.954L-3.464,10.954L-3.464,-13.824Z" style="fill:rgb(26,23,27);fill-rule:nonzero;"/>
            </g>
            <g transform="matrix(1,0,0,1,217.019,375.841)">
                <path d="M0,-0.035C0,0.572 -0.222,1.108 -0.665,1.575C-1.109,2.042 -1.668,2.275 -2.345,2.275C-2.998,2.275 -3.552,2.047 -4.007,1.593C-4.462,1.138 -4.69,0.607 -4.69,-0C-4.69,-0.63 -4.468,-1.173 -4.024,-1.628C-3.582,-2.082 -3.022,-2.31 -2.345,-2.31C-1.668,-2.31 -1.109,-2.088 -0.665,-1.645C-0.222,-1.202 0,-0.665 0,-0.035" style="fill:rgb(26,23,27);fill-rule:nonzero;"/>
            </g>
            <g transform="matrix(1,0,0,1,231.997,356.067)">
                <path d="M0,18.899L4.34,18.899C5.063,18.899 5.792,18.835 6.528,18.706C7.262,18.579 7.927,18.351 8.522,18.024C9.117,17.698 9.595,17.26 9.957,16.712C10.318,16.164 10.5,15.469 10.5,14.629C10.5,13.159 9.997,12.098 8.995,11.445C7.991,10.792 6.545,10.465 4.655,10.465L0,10.465L0,18.899ZM0,7.525L4.515,7.525C5.168,7.525 5.792,7.449 6.387,7.298C6.982,7.146 7.501,6.913 7.945,6.597C8.388,6.283 8.738,5.886 8.995,5.408C9.251,4.929 9.38,4.352 9.38,3.675C9.38,2.345 8.89,1.395 7.91,0.823C6.93,0.251 5.612,-0.035 3.955,-0.035L0,-0.035L0,7.525ZM-3.464,-2.94L5.075,-2.94C6.008,-2.94 6.941,-2.834 7.875,-2.624C8.808,-2.415 9.642,-2.065 10.377,-1.575C11.112,-1.085 11.707,-0.442 12.162,0.35C12.617,1.144 12.844,2.135 12.844,3.325C12.844,4.702 12.447,5.857 11.655,6.79C10.861,7.724 9.811,8.365 8.505,8.715L8.505,8.785C9.298,8.878 10.032,9.082 10.709,9.397C11.386,9.712 11.97,10.127 12.459,10.639C12.949,11.153 13.328,11.76 13.597,12.46C13.865,13.159 13.999,13.941 13.999,14.804C13.999,15.994 13.754,17.033 13.264,17.919C12.774,18.806 12.11,19.535 11.269,20.106C10.43,20.679 9.443,21.11 8.312,21.402C7.18,21.694 5.973,21.839 4.69,21.839L-3.464,21.839L-3.464,-2.94Z" style="fill:rgb(26,23,27);fill-rule:nonzero;"/>
            </g>
            <g transform="matrix(1,0,0,1,259.646,369.191)">
                <path d="M0,0.806C-0.817,0.806 -1.663,0.841 -2.538,0.911C-3.412,0.981 -4.206,1.121 -4.917,1.331C-5.629,1.541 -6.218,1.856 -6.685,2.276C-7.151,2.696 -7.384,3.255 -7.384,3.956C-7.384,4.446 -7.285,4.854 -7.087,5.181C-6.889,5.507 -6.626,5.775 -6.3,5.986C-5.973,6.195 -5.612,6.342 -5.215,6.423C-4.818,6.505 -4.41,6.546 -3.99,6.546C-2.45,6.546 -1.266,6.085 -0.438,5.163C0.391,4.242 0.805,3.081 0.805,1.681L0.805,0.806L0,0.806ZM0.805,-2.029C0.805,-3.265 0.431,-4.181 -0.315,-4.776C-1.062,-5.371 -2.054,-5.669 -3.29,-5.669C-4.223,-5.669 -5.104,-5.488 -5.932,-5.126C-6.76,-4.764 -7.455,-4.304 -8.015,-3.744L-9.764,-5.844C-8.948,-6.614 -7.951,-7.22 -6.772,-7.664C-5.594,-8.107 -4.328,-8.329 -2.975,-8.329C-1.785,-8.329 -0.752,-8.159 0.123,-7.821C0.997,-7.483 1.715,-7.022 2.275,-6.439C2.835,-5.855 3.255,-5.167 3.535,-4.374C3.815,-3.58 3.954,-2.729 3.954,-1.819L3.954,5.426C3.954,5.986 3.972,6.575 4.007,7.193C4.042,7.811 4.106,8.319 4.2,8.715L1.225,8.715C1.038,7.922 0.945,7.129 0.945,6.335L0.84,6.335C0.233,7.223 -0.531,7.91 -1.453,8.4C-2.375,8.89 -3.465,9.135 -4.725,9.135C-5.378,9.135 -6.061,9.048 -6.772,8.873C-7.484,8.698 -8.131,8.412 -8.715,8.016C-9.298,7.619 -9.782,7.094 -10.167,6.441C-10.552,5.788 -10.744,4.983 -10.744,4.026C-10.744,2.766 -10.407,1.768 -9.729,1.034C-9.053,0.298 -8.166,-0.262 -7.07,-0.647C-5.973,-1.031 -4.737,-1.282 -3.36,-1.399C-1.984,-1.515 -0.595,-1.574 0.805,-1.574L0.805,-2.029Z" style="fill:rgb(26,23,27);fill-rule:nonzero;"/>
            </g>
            <g transform="matrix(1,0,0,1,268.36,375.596)">
                <path d="M0,-12.424C-0.023,-13.124 -0.058,-13.742 -0.105,-14.279L3.01,-14.279C3.057,-13.859 3.092,-13.374 3.115,-12.827C3.138,-12.278 3.15,-11.829 3.15,-11.479L3.255,-11.479C3.721,-12.459 4.404,-13.246 5.302,-13.842C6.2,-14.437 7.21,-14.734 8.329,-14.734C8.843,-14.734 9.274,-14.687 9.625,-14.594L9.485,-11.549C9.017,-11.666 8.516,-11.724 7.98,-11.724C7.186,-11.724 6.498,-11.578 5.915,-11.287C5.331,-10.995 4.847,-10.604 4.462,-10.114C4.078,-9.624 3.791,-9.059 3.605,-8.417C3.418,-7.775 3.325,-7.104 3.325,-6.405L3.325,2.31L0.035,2.31L0.035,-10.709C0.035,-11.152 0.023,-11.724 0,-12.424" style="fill:rgb(26,23,27);fill-rule:nonzero;"/>
            </g>
            <g transform="matrix(1,0,0,1,280.329,375.596)">
                <path d="M0,-12.424C-0.023,-13.124 -0.058,-13.742 -0.105,-14.279L3.01,-14.279C3.057,-13.859 3.092,-13.374 3.115,-12.827C3.138,-12.278 3.15,-11.829 3.15,-11.479L3.255,-11.479C3.722,-12.459 4.404,-13.246 5.302,-13.842C6.2,-14.437 7.21,-14.734 8.329,-14.734C8.843,-14.734 9.274,-14.687 9.625,-14.594L9.485,-11.549C9.017,-11.666 8.516,-11.724 7.98,-11.724C7.186,-11.724 6.498,-11.578 5.915,-11.287C5.331,-10.995 4.847,-10.604 4.462,-10.114C4.078,-9.624 3.791,-9.059 3.605,-8.417C3.418,-7.775 3.325,-7.104 3.325,-6.405L3.325,2.31L0.035,2.31L0.035,-10.709C0.035,-11.152 0.023,-11.724 0,-12.424" style="fill:rgb(26,23,27);fill-rule:nonzero;"/>
            </g>
            <g transform="matrix(1,0,0,1,301.398,369.191)">
                <path d="M0,0.806C-0.816,0.806 -1.662,0.841 -2.537,0.911C-3.412,0.981 -4.205,1.121 -4.917,1.331C-5.629,1.541 -6.218,1.856 -6.685,2.276C-7.151,2.696 -7.384,3.255 -7.384,3.956C-7.384,4.446 -7.285,4.854 -7.086,5.181C-6.888,5.507 -6.627,5.775 -6.3,5.986C-5.973,6.195 -5.611,6.342 -5.214,6.423C-4.818,6.505 -4.41,6.546 -3.989,6.546C-2.45,6.546 -1.265,6.085 -0.437,5.163C0.391,4.242 0.806,3.081 0.806,1.681L0.806,0.806L0,0.806ZM0.806,-2.029C0.806,-3.265 0.431,-4.181 -0.314,-4.776C-1.062,-5.371 -2.053,-5.669 -3.29,-5.669C-4.223,-5.669 -5.104,-5.488 -5.932,-5.126C-6.76,-4.764 -7.455,-4.304 -8.014,-3.744L-9.764,-5.844C-8.948,-6.614 -7.95,-7.22 -6.772,-7.664C-5.594,-8.107 -4.328,-8.329 -2.974,-8.329C-1.785,-8.329 -0.752,-8.159 0.123,-7.821C0.998,-7.483 1.716,-7.022 2.275,-6.439C2.836,-5.855 3.255,-5.167 3.535,-4.374C3.815,-3.58 3.955,-2.729 3.955,-1.819L3.955,5.426C3.955,5.986 3.973,6.575 4.007,7.193C4.043,7.811 4.106,8.319 4.2,8.715L1.225,8.715C1.038,7.922 0.945,7.129 0.945,6.335L0.84,6.335C0.233,7.223 -0.53,7.91 -1.452,8.4C-2.374,8.89 -3.464,9.135 -4.725,9.135C-5.378,9.135 -6.061,9.048 -6.772,8.873C-7.484,8.698 -8.131,8.412 -8.714,8.016C-9.298,7.619 -9.782,7.094 -10.166,6.441C-10.551,5.788 -10.744,4.983 -10.744,4.026C-10.744,2.766 -10.406,1.768 -9.729,1.034C-9.052,0.298 -8.166,-0.262 -7.07,-0.647C-5.973,-1.031 -4.736,-1.282 -3.36,-1.399C-1.983,-1.515 -0.595,-1.574 0.806,-1.574L0.806,-2.029Z" style="fill:rgb(26,23,27);fill-rule:nonzero;"/>
            </g>
            <g transform="matrix(1,0,0,1,319.106,373.706)">
                <path d="M0,-8.189C-0.373,-8.795 -0.898,-9.291 -1.575,-9.676C-2.252,-10.061 -3.01,-10.254 -3.85,-10.254C-4.223,-10.254 -4.597,-10.213 -4.97,-10.131C-5.343,-10.049 -5.676,-9.921 -5.967,-9.746C-6.26,-9.571 -6.492,-9.349 -6.667,-9.081C-6.842,-8.813 -6.93,-8.481 -6.93,-8.084C-6.93,-7.384 -6.615,-6.864 -5.984,-6.526C-5.355,-6.188 -4.409,-5.879 -3.15,-5.599C-2.357,-5.412 -1.622,-5.19 -0.945,-4.934C-0.269,-4.677 0.321,-4.357 0.822,-3.972C1.324,-3.587 1.715,-3.126 1.994,-2.589C2.275,-2.052 2.415,-1.422 2.415,-0.699C2.415,0.28 2.228,1.109 1.855,1.785C1.481,2.462 0.985,3.016 0.367,3.448C-0.252,3.88 -0.957,4.189 -1.75,4.375C-2.543,4.562 -3.36,4.655 -4.2,4.655C-5.459,4.655 -6.691,4.41 -7.892,3.92C-9.094,3.431 -10.091,2.684 -10.884,1.68L-8.539,-0.315C-8.097,0.339 -7.484,0.887 -6.702,1.33C-5.921,1.774 -5.063,1.996 -4.13,1.996C-3.71,1.996 -3.308,1.955 -2.923,1.873C-2.538,1.792 -2.188,1.658 -1.873,1.471C-1.558,1.284 -1.307,1.039 -1.12,0.735C-0.934,0.432 -0.84,0.047 -0.84,-0.419C-0.84,-1.189 -1.208,-1.761 -1.943,-2.134C-2.677,-2.507 -3.756,-2.857 -5.18,-3.184C-5.74,-3.324 -6.306,-3.493 -6.877,-3.692C-7.449,-3.89 -7.968,-4.164 -8.435,-4.514C-8.902,-4.864 -9.28,-5.302 -9.572,-5.827C-9.864,-6.352 -10.01,-6.999 -10.01,-7.769C-10.01,-8.655 -9.829,-9.419 -9.467,-10.061C-9.106,-10.703 -8.633,-11.228 -8.05,-11.636C-7.467,-12.044 -6.802,-12.348 -6.054,-12.546C-5.309,-12.744 -4.538,-12.844 -3.745,-12.844C-2.555,-12.844 -1.406,-12.61 -0.298,-12.143C0.81,-11.677 1.668,-11 2.275,-10.114L0,-8.189Z" style="fill:rgb(26,23,27);fill-rule:nonzero;"/>
            </g>
            <g transform="matrix(1,0,0,1,336.675,356.207)">
                <path d="M0,18.619L12.949,18.619L12.949,21.699L-3.465,21.699L-3.465,-3.08L12.424,-3.08L12.424,-0.035L0,-0.035L0,7.385L11.689,7.385L11.689,10.359L0,10.359L0,18.619Z" style="fill:rgb(26,23,27);fill-rule:nonzero;"/>
            </g>
            <g transform="matrix(-1,0,0,1,710.166,-112.536)">
                <rect x="353.438" y="463.984" width="3.29" height="26.458" style="fill:rgb(26,23,27);"/>
            </g>
            <g transform="matrix(1,0,0,1,373.912,371.082)">
                <path d="M0,-2.94C-0.023,-3.593 -0.134,-4.205 -0.332,-4.777C-0.53,-5.349 -0.822,-5.845 -1.207,-6.265C-1.592,-6.685 -2.071,-7.017 -2.642,-7.262C-3.214,-7.507 -3.885,-7.63 -4.655,-7.63C-5.354,-7.63 -6.013,-7.507 -6.632,-7.262C-7.25,-7.017 -7.786,-6.685 -8.241,-6.265C-8.696,-5.845 -9.07,-5.349 -9.361,-4.777C-9.654,-4.205 -9.823,-3.593 -9.869,-2.94L0,-2.94ZM3.36,-1.61L3.36,-1.05C3.36,-0.863 3.348,-0.677 3.325,-0.49L-9.869,-0.49C-9.846,0.206 -9.688,0.86 -9.397,1.474C-9.105,2.088 -8.714,2.621 -8.224,3.073C-7.735,3.524 -7.169,3.878 -6.527,4.132C-5.885,4.387 -5.202,4.515 -4.479,4.515C-3.36,4.515 -2.391,4.27 -1.575,3.78C-0.758,3.29 -0.116,2.695 0.351,1.995L2.66,3.85C1.773,5.025 0.729,5.891 -0.472,6.447C-1.674,7.002 -3.009,7.28 -4.479,7.28C-5.739,7.28 -6.906,7.069 -7.979,6.65C-9.052,6.23 -9.974,5.641 -10.744,4.882C-11.514,4.124 -12.12,3.208 -12.564,2.135C-13.007,1.062 -13.229,-0.128 -13.229,-1.435C-13.229,-2.718 -13.012,-3.902 -12.58,-4.987C-12.148,-6.072 -11.546,-7 -10.774,-7.77C-10.002,-8.54 -9.091,-9.14 -8.038,-9.572C-6.986,-10.003 -5.853,-10.22 -4.637,-10.22C-3.42,-10.22 -2.316,-10.021 -1.322,-9.625C-0.328,-9.227 0.513,-8.656 1.203,-7.909C1.893,-7.162 2.425,-6.259 2.799,-5.197C3.173,-4.135 3.36,-2.94 3.36,-1.61" style="fill:rgb(26,23,27);fill-rule:nonzero;"/>
            </g>
            <g transform="matrix(1,0,0,1,392.741,373.706)">
                <path d="M0,-8.189C-0.35,-8.725 -0.875,-9.174 -1.575,-9.536C-2.274,-9.898 -3.022,-10.079 -3.815,-10.079C-4.677,-10.079 -5.442,-9.915 -6.107,-9.589C-6.772,-9.262 -7.338,-8.824 -7.804,-8.277C-8.271,-7.728 -8.626,-7.092 -8.872,-6.369C-9.117,-5.645 -9.239,-4.887 -9.239,-4.094C-9.239,-3.301 -9.117,-2.542 -8.872,-1.82C-8.626,-1.096 -8.271,-0.46 -7.804,0.088C-7.338,0.636 -6.766,1.074 -6.089,1.401C-5.413,1.728 -4.643,1.891 -3.779,1.891C-2.939,1.891 -2.175,1.728 -1.487,1.401C-0.799,1.074 -0.233,0.63 0.211,0.071L2.415,2.065C1.716,2.882 0.84,3.518 -0.21,3.973C-1.26,4.428 -2.449,4.655 -3.779,4.655C-5.062,4.655 -6.247,4.445 -7.331,4.025C-8.417,3.605 -9.356,3.016 -10.149,2.258C-10.942,1.5 -11.566,0.584 -12.021,-0.489C-12.476,-1.563 -12.704,-2.764 -12.704,-4.094C-12.704,-5.401 -12.482,-6.591 -12.039,-7.664C-11.595,-8.737 -10.978,-9.659 -10.184,-10.429C-9.391,-11.199 -8.451,-11.794 -7.367,-12.214C-6.281,-12.633 -5.11,-12.844 -3.849,-12.844C-2.683,-12.844 -1.522,-12.61 -0.367,-12.143C0.787,-11.677 1.703,-11 2.38,-10.114L0,-8.189Z" style="fill:rgb(26,23,27);fill-rule:nonzero;"/>
            </g>
            <g transform="matrix(1,0,0,1,405.83,370.732)">
                <path d="M0,-6.72L-4.41,-6.72L-4.41,1.898C-4.41,2.899 -4.223,3.614 -3.85,4.044C-3.477,4.475 -2.882,4.689 -2.064,4.689C-1.762,4.689 -1.435,4.658 -1.085,4.593C-0.735,4.529 -0.42,4.433 -0.14,4.304L-0.035,6.999C-0.432,7.139 -0.869,7.25 -1.348,7.332C-1.826,7.413 -2.321,7.454 -2.835,7.454C-4.399,7.454 -5.594,7.023 -6.422,6.159C-7.25,5.296 -7.665,4.001 -7.665,2.275L-7.665,-6.72L-10.849,-6.72L-10.849,-9.415L-7.665,-9.415L-7.665,-14.174L-4.41,-14.174L-4.41,-9.415L0,-9.415L0,-6.72Z" style="fill:rgb(26,23,27);fill-rule:nonzero;"/>
            </g>
            <g transform="matrix(1,0,0,1,408.49,375.596)">
                <path d="M0,-12.424C-0.024,-13.124 -0.059,-13.742 -0.105,-14.279L3.01,-14.279C3.056,-13.859 3.091,-13.374 3.114,-12.827C3.137,-12.278 3.15,-11.829 3.15,-11.479L3.254,-11.479C3.721,-12.459 4.403,-13.246 5.302,-13.842C6.2,-14.437 7.21,-14.734 8.329,-14.734C8.842,-14.734 9.274,-14.687 9.624,-14.594L9.484,-11.549C9.017,-11.666 8.516,-11.724 7.979,-11.724C7.186,-11.724 6.498,-11.578 5.914,-11.287C5.33,-10.995 4.847,-10.604 4.462,-10.114C4.077,-9.624 3.791,-9.059 3.605,-8.417C3.418,-7.775 3.324,-7.104 3.324,-6.405L3.324,2.31L0.035,2.31L0.035,-10.709C0.035,-11.152 0.023,-11.724 0,-12.424" style="fill:rgb(26,23,27);fill-rule:nonzero;"/>
            </g>
            <g transform="matrix(1,0,0,1,0,-110.787)">
                <path d="M423.818,488.693L420.528,488.693L420.528,472.104L423.818,472.104L423.818,488.693ZM424.343,466.12C424.343,466.726 424.129,467.228 423.7,467.624C423.272,468.022 422.757,468.22 422.156,468.22C421.554,468.22 421.045,468.015 420.628,467.607C420.212,467.199 420.004,466.703 420.004,466.12C420.004,465.513 420.212,465.006 420.628,464.597C421.045,464.189 421.554,463.984 422.156,463.984C422.757,463.984 423.272,464.189 423.7,464.597C424.129,465.006 424.343,465.513 424.343,466.12" style="fill:rgb(26,23,27);fill-rule:nonzero;"/>
            </g>
            <g transform="matrix(1,0,0,1,440.476,373.706)">
                <path d="M0,-8.189C-0.35,-8.725 -0.875,-9.174 -1.575,-9.536C-2.274,-9.898 -3.022,-10.079 -3.815,-10.079C-4.677,-10.079 -5.442,-9.915 -6.107,-9.589C-6.772,-9.262 -7.338,-8.824 -7.805,-8.277C-8.271,-7.728 -8.626,-7.092 -8.872,-6.369C-9.117,-5.645 -9.239,-4.887 -9.239,-4.094C-9.239,-3.301 -9.117,-2.542 -8.872,-1.82C-8.626,-1.096 -8.271,-0.46 -7.805,0.088C-7.338,0.636 -6.766,1.074 -6.089,1.401C-5.413,1.728 -4.643,1.891 -3.779,1.891C-2.939,1.891 -2.175,1.728 -1.487,1.401C-0.799,1.074 -0.233,0.63 0.211,0.071L2.415,2.065C1.716,2.882 0.84,3.518 -0.21,3.973C-1.26,4.428 -2.45,4.655 -3.779,4.655C-5.063,4.655 -6.247,4.445 -7.331,4.025C-8.417,3.605 -9.356,3.016 -10.149,2.258C-10.942,1.5 -11.566,0.584 -12.021,-0.489C-12.477,-1.563 -12.704,-2.764 -12.704,-4.094C-12.704,-5.401 -12.482,-6.591 -12.039,-7.664C-11.595,-8.737 -10.978,-9.659 -10.184,-10.429C-9.391,-11.199 -8.451,-11.794 -7.367,-12.214C-6.281,-12.633 -5.11,-12.844 -3.849,-12.844C-2.683,-12.844 -1.522,-12.61 -0.367,-12.143C0.787,-11.677 1.703,-11 2.38,-10.114L0,-8.189Z" style="fill:rgb(26,23,27);fill-rule:nonzero;"/>
            </g>
            <g transform="matrix(1,0,0,1,0,-110.787)">
                <path d="M448.771,488.693L445.481,488.693L445.481,472.104L448.771,472.104L448.771,488.693ZM449.296,466.12C449.296,466.726 449.082,467.228 448.653,467.624C448.225,468.022 447.71,468.22 447.109,468.22C446.507,468.22 445.998,468.015 445.581,467.607C445.165,467.199 444.957,466.703 444.957,466.12C444.957,465.513 445.165,465.006 445.581,464.597C445.998,464.189 446.507,463.984 447.109,463.984C447.71,463.984 448.225,464.189 448.653,464.597C449.082,465.006 449.296,465.513 449.296,466.12" style="fill:rgb(26,23,27);fill-rule:nonzero;"/>
            </g>
            <g transform="matrix(1,0,0,1,461.93,370.732)">
                <path d="M0,-6.72L-4.409,-6.72L-4.409,1.898C-4.409,2.899 -4.223,3.614 -3.85,4.044C-3.477,4.475 -2.882,4.689 -2.064,4.689C-1.762,4.689 -1.435,4.658 -1.085,4.593C-0.735,4.529 -0.42,4.433 -0.14,4.304L-0.035,6.999C-0.432,7.139 -0.869,7.25 -1.348,7.332C-1.826,7.413 -2.321,7.454 -2.835,7.454C-4.399,7.454 -5.594,7.023 -6.422,6.159C-7.25,5.296 -7.665,4.001 -7.665,2.275L-7.665,-6.72L-10.849,-6.72L-10.849,-9.415L-7.665,-9.415L-7.665,-14.174L-4.409,-14.174L-4.409,-9.415L0,-9.415L0,-6.72Z" style="fill:rgb(26,23,27);fill-rule:nonzero;"/>
            </g>
            <g transform="matrix(1,0,0,1,473.071,373.321)">
                <path d="M0,-15.154L-2.694,-15.154L0.805,-20.194L4.757,-20.194L0,-15.154ZM3.697,-5.18C3.674,-5.833 3.562,-6.445 3.364,-7.017C3.166,-7.588 2.875,-8.084 2.489,-8.504C2.104,-8.924 1.626,-9.257 1.054,-9.502C0.482,-9.747 -0.188,-9.869 -0.958,-9.869C-1.658,-9.869 -2.317,-9.747 -2.935,-9.502C-3.554,-9.257 -4.09,-8.924 -4.545,-8.504C-5,-8.084 -5.373,-7.588 -5.665,-7.017C-5.957,-6.445 -6.126,-5.833 -6.172,-5.18L3.697,-5.18ZM7.057,-3.85L7.057,-3.29C7.057,-3.103 7.044,-2.916 7.022,-2.73L-6.172,-2.73C-6.15,-2.034 -5.992,-1.38 -5.7,-0.766C-5.409,-0.152 -5.017,0.381 -4.528,0.833C-4.038,1.285 -3.472,1.638 -2.83,1.893C-2.189,2.148 -1.506,2.275 -0.783,2.275C0.337,2.275 1.305,2.03 2.122,1.54C2.938,1.05 3.58,0.455 4.047,-0.245L6.357,1.61C5.469,2.786 4.426,3.651 3.224,4.207C2.023,4.762 0.688,5.04 -0.783,5.04C-2.043,5.04 -3.21,4.83 -4.282,4.41C-5.356,3.99 -6.278,3.401 -7.047,2.642C-7.817,1.885 -8.424,0.969 -8.867,-0.105C-9.31,-1.178 -9.532,-2.368 -9.532,-3.675C-9.532,-4.958 -9.316,-6.142 -8.883,-7.227C-8.451,-8.312 -7.849,-9.24 -7.078,-10.009C-6.306,-10.779 -5.394,-11.38 -4.341,-11.812C-3.29,-12.243 -2.156,-12.459 -0.94,-12.459C0.276,-12.459 1.381,-12.261 2.375,-11.864C3.369,-11.467 4.21,-10.896 4.9,-10.149C5.589,-9.402 6.122,-8.498 6.496,-7.437C6.87,-6.375 7.057,-5.18 7.057,-3.85" style="fill:rgb(26,23,27);fill-rule:nonzero;"/>
            </g>
            <g transform="matrix(1,0,0,1,504.522,373.321)">
                <path d="M0,-15.609C-0.49,-16.285 -1.155,-16.839 -1.995,-17.272C-2.835,-17.703 -3.78,-17.919 -4.83,-17.919C-5.389,-17.919 -5.956,-17.843 -6.528,-17.691C-7.1,-17.539 -7.618,-17.294 -8.085,-16.956C-8.552,-16.618 -8.931,-16.198 -9.222,-15.697C-9.514,-15.194 -9.66,-14.594 -9.66,-13.894C-9.66,-13.217 -9.526,-12.652 -9.257,-12.197C-8.989,-11.742 -8.627,-11.357 -8.172,-11.042C-7.717,-10.727 -7.181,-10.458 -6.562,-10.237C-5.944,-10.015 -5.285,-9.787 -4.585,-9.554C-3.745,-9.297 -2.894,-9.006 -2.03,-8.68C-1.167,-8.352 -0.385,-7.921 0.315,-7.384C1.014,-6.848 1.586,-6.177 2.03,-5.372C2.472,-4.567 2.695,-3.546 2.695,-2.31C2.695,-1.026 2.455,0.088 1.977,1.033C1.499,1.977 0.863,2.759 0.07,3.377C-0.724,3.996 -1.639,4.457 -2.678,4.76C-3.716,5.063 -4.784,5.215 -5.88,5.215C-7.443,5.215 -8.954,4.911 -10.412,4.305C-11.871,3.698 -13.078,2.8 -14.034,1.61L-11.339,-0.665C-10.756,0.198 -9.974,0.899 -8.994,1.435C-8.014,1.972 -6.953,2.24 -5.81,2.24C-5.227,2.24 -4.644,2.158 -4.06,1.995C-3.477,1.832 -2.946,1.575 -2.468,1.225C-1.99,0.875 -1.599,0.438 -1.295,-0.087C-0.992,-0.613 -0.84,-1.248 -0.84,-1.995C-0.84,-2.741 -0.997,-3.365 -1.312,-3.867C-1.628,-4.369 -2.054,-4.795 -2.59,-5.145C-3.127,-5.494 -3.751,-5.792 -4.462,-6.037C-5.174,-6.282 -5.927,-6.533 -6.72,-6.79C-7.513,-7.023 -8.295,-7.309 -9.064,-7.647C-9.834,-7.985 -10.523,-8.417 -11.13,-8.942C-11.736,-9.467 -12.227,-10.114 -12.599,-10.884C-12.973,-11.654 -13.159,-12.61 -13.159,-13.754C-13.159,-14.991 -12.909,-16.052 -12.407,-16.939C-11.905,-17.825 -11.252,-18.56 -10.447,-19.144C-9.642,-19.726 -8.732,-20.152 -7.717,-20.421C-6.702,-20.689 -5.682,-20.824 -4.655,-20.824C-3.209,-20.824 -1.856,-20.567 -0.595,-20.053C0.665,-19.54 1.679,-18.852 2.449,-17.989L0,-15.609Z" style="fill:rgb(26,23,27);fill-rule:nonzero;"/>
            </g>
            <g transform="matrix(1,0,0,1,516.14,362.262)">
                <path d="M0,6.509L9.274,6.509L4.655,-5.11L0,6.509ZM-3.71,15.644L-7.559,15.644L3.185,-9.135L6.335,-9.135L16.974,15.644L13.054,15.644L10.535,9.554L-1.225,9.554L-3.71,15.644Z" style="fill:rgb(26,23,27);fill-rule:nonzero;"/>
            </g>
            <g transform="matrix(1,0,0,1,183.478,414.822)">
                <path d="M0,-15.609C-0.49,-16.285 -1.155,-16.839 -1.995,-17.272C-2.835,-17.703 -3.78,-17.919 -4.83,-17.919C-5.39,-17.919 -5.956,-17.843 -6.528,-17.691C-7.099,-17.539 -7.618,-17.294 -8.085,-16.956C-8.552,-16.618 -8.931,-16.198 -9.222,-15.697C-9.514,-15.194 -9.66,-14.594 -9.66,-13.894C-9.66,-13.217 -9.526,-12.652 -9.257,-12.197C-8.989,-11.742 -8.627,-11.357 -8.172,-11.042C-7.717,-10.727 -7.181,-10.458 -6.562,-10.237C-5.944,-10.015 -5.285,-9.787 -4.585,-9.554C-3.745,-9.297 -2.894,-9.006 -2.03,-8.68C-1.167,-8.352 -0.385,-7.921 0.315,-7.384C1.014,-6.848 1.586,-6.177 2.029,-5.372C2.473,-4.567 2.695,-3.546 2.695,-2.31C2.695,-1.026 2.455,0.088 1.977,1.033C1.499,1.977 0.863,2.759 0.07,3.377C-0.724,3.996 -1.64,4.457 -2.677,4.76C-3.716,5.063 -4.783,5.215 -5.88,5.215C-7.443,5.215 -8.954,4.911 -10.412,4.305C-11.871,3.698 -13.078,2.8 -14.035,1.61L-11.339,-0.665C-10.757,0.198 -9.975,0.899 -8.995,1.435C-8.015,1.972 -6.953,2.24 -5.81,2.24C-5.227,2.24 -4.643,2.158 -4.06,1.995C-3.477,1.832 -2.946,1.575 -2.468,1.225C-1.99,0.875 -1.598,0.438 -1.295,-0.087C-0.992,-0.613 -0.84,-1.248 -0.84,-1.995C-0.84,-2.741 -0.998,-3.365 -1.313,-3.867C-1.628,-4.369 -2.054,-4.795 -2.59,-5.145C-3.127,-5.494 -3.751,-5.792 -4.463,-6.037C-5.174,-6.282 -5.927,-6.532 -6.72,-6.79C-7.513,-7.022 -8.294,-7.309 -9.065,-7.647C-9.834,-7.985 -10.523,-8.417 -11.13,-8.942C-11.737,-9.467 -12.226,-10.114 -12.6,-10.884C-12.973,-11.654 -13.159,-12.61 -13.159,-13.754C-13.159,-14.99 -12.909,-16.052 -12.407,-16.939C-11.906,-17.825 -11.252,-18.56 -10.447,-19.144C-9.642,-19.726 -8.732,-20.152 -7.717,-20.421C-6.702,-20.689 -5.682,-20.824 -4.655,-20.824C-3.208,-20.824 -1.855,-20.567 -0.595,-20.053C0.665,-19.54 1.68,-18.852 2.45,-17.989L0,-15.609Z" style="fill:rgb(26,23,27);fill-rule:nonzero;"/>
            </g>
            <g transform="matrix(1,0,0,1,193.627,407.018)">
                <path d="M0,-1.68C0.396,-2.496 1.073,-3.196 2.03,-3.78C2.986,-4.363 4.06,-4.655 5.25,-4.655C6.323,-4.655 7.245,-4.474 8.014,-4.112C8.784,-3.75 9.426,-3.266 9.939,-2.66C10.452,-2.053 10.832,-1.342 11.077,-0.525C11.322,0.292 11.444,1.167 11.444,2.1L11.444,12.389L8.155,12.389L8.155,3.197C8.155,2.519 8.102,1.875 7.997,1.267C7.892,0.659 7.7,0.122 7.419,-0.346C7.14,-0.814 6.76,-1.188 6.282,-1.469C5.804,-1.749 5.18,-1.89 4.41,-1.89C3.103,-1.89 2.03,-1.393 1.19,-0.399C0.35,0.596 -0.07,1.923 -0.07,3.583L-0.07,12.389L-3.36,12.389L-3.36,-14.069L-0.07,-14.069L-0.07,-1.68L0,-1.68Z" style="fill:rgb(26,23,27);fill-rule:nonzero;"/>
            </g>
            <g transform="matrix(1,0,0,1,223.305,411.13)">
                <path d="M0,-0.035C0,-0.826 -0.123,-1.582 -0.368,-2.303C-0.614,-3.024 -0.971,-3.657 -1.439,-4.204C-1.907,-4.751 -2.487,-5.187 -3.177,-5.513C-3.868,-5.839 -4.658,-6.002 -5.547,-6.002C-6.437,-6.002 -7.227,-5.839 -7.917,-5.513C-8.608,-5.187 -9.187,-4.751 -9.655,-4.204C-10.123,-3.657 -10.48,-3.024 -10.726,-2.303C-10.972,-1.582 -11.094,-0.826 -11.094,-0.035C-11.094,0.757 -10.972,1.513 -10.726,2.233C-10.48,2.955 -10.123,3.595 -9.655,4.153C-9.187,4.711 -8.608,5.153 -7.917,5.479C-7.227,5.805 -6.437,5.968 -5.547,5.968C-4.658,5.968 -3.868,5.805 -3.177,5.479C-2.487,5.153 -1.907,4.711 -1.439,4.153C-0.971,3.595 -0.614,2.955 -0.368,2.233C-0.123,1.513 0,0.757 0,-0.035M3.43,-0.052C3.43,1.231 3.202,2.41 2.747,3.483C2.292,4.556 1.663,5.483 0.857,6.265C0.053,7.047 -0.898,7.653 -1.995,8.085C-3.092,8.516 -4.27,8.732 -5.529,8.732C-6.79,8.732 -7.968,8.516 -9.064,8.085C-10.161,7.653 -11.106,7.047 -11.899,6.265C-12.693,5.483 -13.317,4.556 -13.772,3.483C-14.227,2.41 -14.454,1.231 -14.454,-0.052C-14.454,-1.335 -14.227,-2.508 -13.772,-3.569C-13.317,-4.631 -12.693,-5.547 -11.899,-6.317C-11.106,-7.087 -10.161,-7.687 -9.064,-8.119C-7.968,-8.551 -6.79,-8.767 -5.529,-8.767C-4.27,-8.767 -3.092,-8.551 -1.995,-8.119C-0.898,-7.687 0.053,-7.087 0.857,-6.317C1.663,-5.547 2.292,-4.631 2.747,-3.569C3.202,-2.508 3.43,-1.335 3.43,-0.052" style="fill:rgb(26,23,27);fill-rule:nonzero;"/>
            </g>
            <g transform="matrix(1,0,0,1,244.793,419.092)">
                <path d="M0,-8.014C0,-8.784 -0.117,-9.53 -0.35,-10.254C-0.584,-10.977 -0.934,-11.619 -1.4,-12.179C-1.867,-12.739 -2.445,-13.182 -3.133,-13.509C-3.821,-13.835 -4.62,-13.999 -5.53,-13.999C-6.369,-13.999 -7.134,-13.835 -7.822,-13.509C-8.511,-13.182 -9.1,-12.739 -9.59,-12.179C-10.08,-11.619 -10.459,-10.977 -10.727,-10.254C-10.996,-9.53 -11.13,-8.772 -11.13,-7.979C-11.13,-7.186 -10.996,-6.427 -10.727,-5.704C-10.459,-4.98 -10.08,-4.345 -9.59,-3.797C-9.1,-3.248 -8.511,-2.811 -7.822,-2.484C-7.134,-2.157 -6.369,-1.994 -5.53,-1.994C-4.62,-1.994 -3.821,-2.164 -3.133,-2.502C-2.445,-2.84 -1.867,-3.289 -1.4,-3.849C-0.934,-4.409 -0.584,-5.051 -0.35,-5.774C-0.117,-6.497 0,-7.244 0,-8.014M-10.919,8.715L-14.209,8.715L-14.209,-16.274L-10.989,-16.274L-10.989,-13.684L-10.884,-13.684C-10.349,-14.57 -9.564,-15.299 -8.528,-15.871C-7.493,-16.442 -6.288,-16.729 -4.914,-16.729C-3.681,-16.729 -2.558,-16.506 -1.545,-16.064C-0.533,-15.62 0.34,-15.002 1.073,-14.209C1.806,-13.415 2.37,-12.488 2.766,-11.426C3.162,-10.365 3.36,-9.227 3.36,-8.014C3.36,-6.801 3.162,-5.657 2.766,-4.584C2.37,-3.511 1.811,-2.577 1.09,-1.784C0.368,-0.991 -0.504,-0.367 -1.528,0.088C-2.552,0.543 -3.704,0.77 -4.984,0.77C-6.171,0.77 -7.288,0.513 -8.335,0C-9.383,-0.512 -10.21,-1.236 -10.814,-2.169L-10.919,-2.169L-10.919,8.715Z" style="fill:rgb(26,23,27);fill-rule:nonzero;"/>
            </g>
            <g transform="matrix(1,0,0,1,0,-27.784)">
                <path d="M263.446,447.191L260.156,447.191L260.156,430.602L263.446,430.602L263.446,447.191ZM263.971,424.618C263.971,425.225 263.757,425.726 263.329,426.122C262.901,426.52 262.386,426.718 261.784,426.718C261.183,426.718 260.673,426.513 260.257,426.105C259.84,425.697 259.632,425.201 259.632,424.618C259.632,424.011 259.84,423.504 260.257,423.095C260.673,422.687 261.183,422.483 261.784,422.483C262.386,422.483 262.901,422.687 263.329,423.095C263.757,423.504 263.971,424.011 263.971,424.618" style="fill:rgb(26,23,27);fill-rule:nonzero;"/>
            </g>
            <g transform="matrix(1,0,0,1,271.46,418.952)">
                <path d="M0,-16.134C0.047,-15.714 0.082,-15.242 0.105,-14.717C0.128,-14.192 0.14,-13.754 0.14,-13.404L0.245,-13.404C0.455,-13.847 0.741,-14.262 1.103,-14.647C1.464,-15.031 1.878,-15.369 2.345,-15.662C2.811,-15.953 3.325,-16.18 3.885,-16.344C4.445,-16.507 5.028,-16.589 5.635,-16.589C6.708,-16.589 7.63,-16.408 8.399,-16.046C9.17,-15.684 9.811,-15.2 10.324,-14.594C10.838,-13.987 11.217,-13.276 11.462,-12.459C11.707,-11.642 11.829,-10.767 11.829,-9.834L11.829,0.455L8.54,0.455L8.54,-8.75C8.54,-9.426 8.487,-10.067 8.382,-10.674C8.277,-11.281 8.085,-11.817 7.805,-12.284C7.525,-12.751 7.14,-13.124 6.65,-13.404C6.16,-13.684 5.53,-13.824 4.76,-13.824C3.453,-13.824 2.385,-13.328 1.558,-12.337C0.729,-11.345 0.315,-10.021 0.315,-8.364L0.315,0.455L-2.975,0.455L-2.975,-12.564C-2.975,-13.007 -2.987,-13.579 -3.01,-14.279C-3.033,-14.979 -3.068,-15.597 -3.115,-16.134L0,-16.134Z" style="fill:rgb(26,23,27);fill-rule:nonzero;"/>
            </g>
            <g transform="matrix(1,0,0,1,317.622,398.478)">
                <path d="M0,17.08C-0.981,18.41 -2.252,19.489 -3.815,20.317C-5.379,21.145 -7.257,21.559 -9.449,21.559C-11.34,21.559 -13.084,21.238 -14.683,20.597C-16.281,19.955 -17.656,19.057 -18.811,17.902C-19.967,16.747 -20.871,15.371 -21.523,13.773C-22.177,12.175 -22.504,10.419 -22.504,8.505C-22.504,6.569 -22.172,4.802 -21.507,3.203C-20.842,1.605 -19.919,0.24 -18.742,-0.892C-17.564,-2.023 -16.17,-2.904 -14.559,-3.534C-12.95,-4.164 -11.2,-4.479 -9.309,-4.479C-8.47,-4.479 -7.618,-4.397 -6.755,-4.234C-5.893,-4.07 -5.064,-3.825 -4.271,-3.499C-3.477,-3.172 -2.754,-2.77 -2.1,-2.291C-1.448,-1.813 -0.888,-1.259 -0.421,-0.629L-3.15,1.471C-3.758,0.631 -4.616,-0.063 -5.722,-0.612C-6.832,-1.16 -8.027,-1.434 -9.309,-1.434C-10.757,-1.434 -12.058,-1.171 -13.213,-0.647C-14.367,-0.122 -15.353,0.596 -16.17,1.506C-16.986,2.416 -17.616,3.472 -18.059,4.673C-18.503,5.875 -18.724,7.153 -18.724,8.505C-18.724,9.905 -18.508,11.212 -18.078,12.425C-17.645,13.639 -17.028,14.695 -16.223,15.592C-15.416,16.491 -14.437,17.197 -13.282,17.71C-12.127,18.223 -10.839,18.48 -9.415,18.48C-8.014,18.48 -6.745,18.2 -5.6,17.64C-4.458,17.08 -3.513,16.264 -2.765,15.19L0,17.08Z" style="fill:rgb(26,23,27);fill-rule:nonzero;"/>
            </g>
            <g transform="matrix(1,0,0,1,320.247,417.097)">
                <path d="M0,-12.424C-0.024,-13.124 -0.059,-13.742 -0.105,-14.279L3.01,-14.279C3.056,-13.859 3.091,-13.374 3.114,-12.827C3.137,-12.278 3.15,-11.829 3.15,-11.479L3.254,-11.479C3.721,-12.459 4.403,-13.246 5.302,-13.842C6.2,-14.437 7.21,-14.734 8.329,-14.734C8.842,-14.734 9.274,-14.687 9.624,-14.594L9.484,-11.549C9.017,-11.666 8.516,-11.724 7.979,-11.724C7.186,-11.724 6.498,-11.578 5.914,-11.287C5.33,-10.995 4.847,-10.604 4.462,-10.114C4.077,-9.624 3.791,-9.059 3.605,-8.417C3.418,-7.775 3.324,-7.104 3.324,-6.405L3.324,2.31L0.035,2.31L0.035,-10.709C0.035,-11.152 0.023,-11.724 0,-12.424" style="fill:rgb(26,23,27);fill-rule:nonzero;"/>
            </g>
            <g transform="matrix(1,0,0,1,341.316,410.692)">
                <path d="M0,0.806C-0.817,0.806 -1.662,0.841 -2.537,0.911C-3.412,0.981 -4.205,1.121 -4.917,1.331C-5.629,1.541 -6.218,1.856 -6.685,2.276C-7.151,2.696 -7.384,3.256 -7.384,3.956C-7.384,4.446 -7.285,4.854 -7.087,5.181C-6.889,5.508 -6.627,5.775 -6.3,5.986C-5.973,6.195 -5.611,6.342 -5.214,6.423C-4.818,6.505 -4.41,6.546 -3.989,6.546C-2.45,6.546 -1.265,6.085 -0.437,5.163C0.391,4.242 0.806,3.081 0.806,1.681L0.806,0.806L0,0.806ZM0.806,-2.029C0.806,-3.265 0.431,-4.181 -0.314,-4.776C-1.062,-5.371 -2.053,-5.669 -3.29,-5.669C-4.223,-5.669 -5.104,-5.488 -5.932,-5.126C-6.76,-4.764 -7.454,-4.304 -8.014,-3.744L-9.764,-5.844C-8.948,-6.614 -7.95,-7.22 -6.772,-7.664C-5.594,-8.107 -4.328,-8.329 -2.974,-8.329C-1.785,-8.329 -0.752,-8.159 0.123,-7.821C0.998,-7.483 1.716,-7.022 2.275,-6.439C2.836,-5.855 3.255,-5.167 3.535,-4.374C3.815,-3.58 3.955,-2.729 3.955,-1.819L3.955,5.426C3.955,5.986 3.973,6.575 4.007,7.193C4.043,7.811 4.106,8.319 4.2,8.715L1.225,8.715C1.038,7.923 0.945,7.129 0.945,6.335L0.84,6.335C0.233,7.223 -0.53,7.91 -1.452,8.4C-2.374,8.89 -3.464,9.135 -4.725,9.135C-5.378,9.135 -6.061,9.048 -6.772,8.873C-7.484,8.698 -8.131,8.413 -8.714,8.016C-9.298,7.619 -9.782,7.094 -10.167,6.441C-10.552,5.788 -10.744,4.983 -10.744,4.026C-10.744,2.766 -10.406,1.768 -9.729,1.034C-9.052,0.298 -8.166,-0.262 -7.069,-0.647C-5.973,-1.031 -4.736,-1.282 -3.36,-1.399C-1.983,-1.515 -0.595,-1.574 0.806,-1.574L0.806,-2.029Z" style="fill:rgb(26,23,27);fill-rule:nonzero;"/>
            </g>
            <g transform="matrix(1,0,0,1,353.041,418.952)">
                <path d="M0,-16.134C0.046,-15.714 0.081,-15.242 0.104,-14.717C0.127,-14.192 0.14,-13.754 0.14,-13.404L0.244,-13.404C0.455,-13.847 0.74,-14.262 1.102,-14.647C1.463,-15.031 1.877,-15.369 2.344,-15.662C2.811,-15.953 3.324,-16.18 3.885,-16.344C4.444,-16.507 5.027,-16.589 5.635,-16.589C6.707,-16.589 7.629,-16.408 8.399,-16.046C9.169,-15.684 9.811,-15.2 10.324,-14.594C10.837,-13.987 11.217,-13.276 11.461,-12.459C11.706,-11.642 11.829,-10.767 11.829,-9.834L11.829,0.455L8.539,0.455L8.539,-8.75C8.539,-9.426 8.487,-10.067 8.381,-10.674C8.277,-11.281 8.084,-11.817 7.805,-12.284C7.524,-12.751 7.139,-13.124 6.649,-13.404C6.16,-13.684 5.529,-13.824 4.759,-13.824C3.452,-13.824 2.385,-13.328 1.557,-12.337C0.728,-11.345 0.314,-10.021 0.314,-8.364L0.314,0.455L-2.975,0.455L-2.975,-12.564C-2.975,-13.007 -2.987,-13.579 -3.01,-14.279C-3.034,-14.979 -3.069,-15.597 -3.115,-16.134L0,-16.134Z" style="fill:rgb(26,23,27);fill-rule:nonzero;"/>
            </g>
            <g transform="matrix(1,0,0,1,378.693,415.207)">
                <path d="M0,-8.189C-0.373,-8.795 -0.898,-9.291 -1.575,-9.676C-2.252,-10.061 -3.01,-10.254 -3.85,-10.254C-4.223,-10.254 -4.597,-10.213 -4.97,-10.131C-5.343,-10.049 -5.676,-9.921 -5.967,-9.746C-6.26,-9.571 -6.492,-9.349 -6.667,-9.081C-6.842,-8.813 -6.93,-8.481 -6.93,-8.084C-6.93,-7.384 -6.615,-6.864 -5.984,-6.526C-5.355,-6.188 -4.41,-5.879 -3.15,-5.599C-2.357,-5.412 -1.622,-5.19 -0.945,-4.934C-0.269,-4.677 0.321,-4.357 0.822,-3.972C1.324,-3.586 1.715,-3.126 1.994,-2.589C2.275,-2.052 2.415,-1.422 2.415,-0.699C2.415,0.28 2.228,1.109 1.855,1.785C1.481,2.462 0.985,3.016 0.367,3.448C-0.252,3.88 -0.957,4.189 -1.75,4.375C-2.543,4.562 -3.36,4.655 -4.2,4.655C-5.459,4.655 -6.691,4.41 -7.892,3.92C-9.094,3.431 -10.091,2.684 -10.884,1.68L-8.539,-0.315C-8.097,0.339 -7.484,0.887 -6.702,1.33C-5.921,1.774 -5.063,1.996 -4.13,1.996C-3.71,1.996 -3.308,1.955 -2.923,1.873C-2.538,1.792 -2.188,1.658 -1.873,1.471C-1.558,1.284 -1.307,1.039 -1.12,0.735C-0.934,0.432 -0.84,0.047 -0.84,-0.419C-0.84,-1.189 -1.208,-1.761 -1.943,-2.134C-2.677,-2.507 -3.757,-2.857 -5.18,-3.184C-5.74,-3.324 -6.306,-3.493 -6.877,-3.692C-7.449,-3.89 -7.968,-4.164 -8.435,-4.514C-8.902,-4.864 -9.28,-5.302 -9.572,-5.827C-9.864,-6.352 -10.01,-6.999 -10.01,-7.769C-10.01,-8.655 -9.829,-9.419 -9.467,-10.061C-9.106,-10.703 -8.633,-11.228 -8.05,-11.636C-7.467,-12.044 -6.802,-12.348 -6.054,-12.546C-5.309,-12.744 -4.538,-12.844 -3.745,-12.844C-2.555,-12.844 -1.406,-12.61 -0.298,-12.143C0.81,-11.677 1.668,-11 2.275,-10.114L0,-8.189Z" style="fill:rgb(26,23,27);fill-rule:nonzero;"/>
            </g>
            <g transform="matrix(1,0,0,1,117.525,361.183)">
                <path d="M0,35.561L8.384,35.561C9.541,35.561 10.781,35.489 12.107,35.344C13.431,35.199 14.648,34.863 15.756,34.332C16.865,33.803 17.78,33.044 18.503,32.055C19.226,31.068 19.587,29.731 19.587,28.044C19.587,25.346 18.708,23.467 16.949,22.406C15.19,21.347 12.455,20.816 8.746,20.816L0,20.816L0,35.561ZM0,13.01L8.312,13.01C11.348,13.01 13.624,12.421 15.142,11.239C16.66,10.059 17.419,8.505 17.419,6.577C17.419,4.362 16.635,2.711 15.07,1.627C13.504,0.542 10.986,-0 7.517,-0L0,-0L0,13.01ZM-9.107,-7.806L10.842,-7.806C12.768,-7.806 14.672,-7.577 16.552,-7.119C18.431,-6.661 20.104,-5.914 21.575,-4.879C23.044,-3.842 24.237,-2.505 25.153,-0.867C26.067,0.771 26.526,2.747 26.526,5.06C26.526,7.951 25.706,10.336 24.069,12.215C22.43,14.094 20.285,15.444 17.636,16.263L17.636,16.407C19.226,16.6 20.708,17.046 22.081,17.745C23.454,18.444 24.622,19.335 25.586,20.419C26.55,21.503 27.309,22.756 27.863,24.177C28.416,25.599 28.694,27.129 28.694,28.767C28.694,31.562 28.14,33.887 27.032,35.742C25.923,37.597 24.466,39.091 22.659,40.223C20.852,41.356 18.78,42.163 16.443,42.644C14.106,43.126 11.733,43.367 9.324,43.367L-9.107,43.367L-9.107,-7.806Z" style="fill:rgb(134,185,29);fill-rule:nonzero;"/>
            </g>
            <g transform="matrix(1,0,0,1,119.305,362.666)">
                <path d="M0,35.561L8.384,35.561C9.541,35.561 10.781,35.489 12.107,35.344C13.431,35.199 14.648,34.863 15.756,34.332C16.865,33.803 17.78,33.044 18.503,32.055C19.226,31.069 19.587,29.731 19.587,28.044C19.587,25.346 18.708,23.467 16.949,22.406C15.19,21.347 12.455,20.816 8.746,20.816L0,20.816L0,35.561ZM0,13.01L8.312,13.01C11.348,13.01 13.624,12.421 15.142,11.239C16.66,10.059 17.419,8.505 17.419,6.577C17.419,4.362 16.635,2.711 15.07,1.627C13.504,0.542 10.986,-0 7.517,-0L0,-0L0,13.01ZM-9.107,-7.806L10.842,-7.806C12.768,-7.806 14.672,-7.577 16.552,-7.119C18.431,-6.661 20.104,-5.914 21.575,-4.879C23.044,-3.842 24.237,-2.505 25.153,-0.867C26.067,0.771 26.526,2.747 26.526,5.06C26.526,7.951 25.706,10.336 24.069,12.215C22.43,14.094 20.285,15.444 17.636,16.263L17.636,16.407C19.226,16.6 20.708,17.046 22.081,17.745C23.454,18.444 24.622,19.335 25.586,20.419C26.55,21.503 27.309,22.756 27.863,24.177C28.416,25.599 28.694,27.129 28.694,28.767C28.694,31.562 28.14,33.887 27.032,35.742C25.923,37.597 24.466,39.091 22.659,40.223C20.852,41.356 18.78,42.163 16.443,42.644C14.106,43.127 11.733,43.367 9.324,43.367L-9.107,43.367L-9.107,-7.806Z" style="fill:rgb(26,23,27);fill-rule:nonzero;"/>
            </g>
            <g transform="matrix(1,0,0,1,123.004,350.777)">
                <path d="M0,64.576C-19.232,64.576 -34.879,48.929 -34.879,29.697C-34.879,17.004 -28.062,5.874 -17.898,-0.228L-18.85,-2.077C-29.682,4.374 -36.955,16.201 -36.955,29.697C-36.955,50.074 -20.377,66.653 0,66.653C5.304,66.653 10.349,65.527 14.913,63.506L13.961,61.657C9.683,63.532 4.962,64.576 0,64.576" style="fill:rgb(134,185,29);fill-rule:nonzero;"/>
            </g>
            <g transform="matrix(0,-1,-1,0,104.624,348.579)">
                <path d="M-1.039,-1.039C-1.613,-1.039 -2.078,-0.574 -2.078,0C-2.078,0.574 -1.613,1.039 -1.039,1.039C-0.465,1.039 0,0.574 0,0C0,-0.574 -0.465,-1.039 -1.039,-1.039" style="fill:rgb(134,185,29);fill-rule:nonzero;"/>
            </g>
            <g transform="matrix(0,-1,-1,0,137.428,412.328)">
                <path d="M-1.039,-1.039C-1.613,-1.039 -2.078,-0.574 -2.078,0C-2.078,0.574 -1.613,1.039 -1.039,1.039C-0.465,1.039 0,0.574 0,0C0,-0.574 -0.465,-1.039 -1.039,-1.039" style="fill:rgb(134,185,29);fill-rule:nonzero;"/>
            </g>
            <g transform="matrix(1,0,0,1,123.004,337.171)">
                <path d="M0,86.607C-23.878,86.607 -43.304,67.181 -43.304,43.303C-43.304,19.425 -23.878,-0.001 0,-0.001C1.008,-0.001 2.009,0.035 3,0.103C3.135,0.112 3.081,-0.088 3.215,-0.077L3.245,-1.96C2.173,-2.036 1.091,-2.077 0,-2.077C-25.023,-2.077 -45.38,18.28 -45.38,43.303C-45.38,68.326 -25.023,88.684 0,88.684C3.464,88.684 6.837,88.292 10.081,87.553L9.853,85.718C9.736,85.745 9.687,85.513 9.57,85.54C6.49,86.237 3.288,86.607 0,86.607" style="fill:rgb(26,23,27);fill-rule:nonzero;"/>
            </g>
            <g transform="matrix(0,-1,-1,0,126.113,335.201)">
                <path d="M-1.039,-1.039C-1.613,-1.039 -2.078,-0.574 -2.078,0C-2.078,0.574 -1.613,1.039 -1.039,1.039C-0.465,1.039 0,0.574 0,0C0,-0.574 -0.465,-1.039 -1.039,-1.039" style="fill:rgb(26,23,27);fill-rule:nonzero;"/>
            </g>
            <g transform="matrix(0,-1,-1,0,132.82,422.681)">
                <path d="M-1.039,-1.039C-1.613,-1.039 -2.078,-0.574 -2.078,0C-2.078,0.574 -1.613,1.039 -1.039,1.039C-0.465,1.039 0,0.574 0,0C0,-0.574 -0.465,-1.039 -1.039,-1.039" style="fill:rgb(26,23,27);fill-rule:nonzero;"/>
            </g>
            <g transform="matrix(1,0,0,1,61.1903,377.768)">
                <path d="M0,2.706C0,-31.378 27.73,-59.108 61.814,-59.108C80.859,-59.108 97.917,-50.449 109.265,-36.863C109.404,-36.696 109.581,-36.823 109.718,-36.656L110.895,-38.198C109.664,-39.67 108.365,-41.098 106.991,-42.471C94.924,-54.539 78.88,-61.184 61.814,-61.184C44.748,-61.184 28.704,-54.539 16.637,-42.471C4.569,-30.404 -2.076,-14.36 -2.076,2.706C-2.076,19.772 4.569,35.816 16.637,47.883C24.207,55.454 33.344,60.89 43.315,63.89L44.176,62.228C43.951,62.163 44.081,61.925 43.858,61.857C18.503,54.145 0,30.547 0,2.706" style="fill:rgb(26,23,27);fill-rule:nonzero;"/>
            </g>
            <g transform="matrix(0,-1,-1,0,171.261,339.179)">
                <path d="M-1.052,-1.052C-1.633,-1.052 -2.104,-0.581 -2.104,0C-2.104,0.581 -1.633,1.052 -1.052,1.052C-0.471,1.052 0,0.581 0,0C0,-0.581 -0.471,-1.052 -1.052,-1.052" style="fill:rgb(26,23,27);fill-rule:nonzero;"/>
            </g>
            <g transform="matrix(0,-1,-1,0,104.793,439.596)">
                <path d="M-1.051,-1.051C-1.631,-1.051 -2.102,-0.58 -2.102,0C-2.102,0.581 -1.631,1.051 -1.051,1.051C-0.47,1.051 0,0.581 0,0C0,-0.58 -0.47,-1.051 -1.051,-1.051" style="fill:rgb(26,23,27);fill-rule:nonzero;"/>
            </g>
            <g transform="matrix(1,0,0,1,70.6182,380.352)">
                <path d="M0,0.122C0,-28.764 23.5,-52.264 52.386,-52.264C62.166,-52.264 71.327,-49.569 79.169,-44.884C79.344,-44.78 79.499,-44.934 79.672,-44.827L80.328,-46.609C72.153,-51.515 62.594,-54.341 52.386,-54.341C22.355,-54.341 -2.076,-29.909 -2.076,0.122C-2.076,28.946 20.432,52.608 48.795,54.463L49.062,52.711C48.861,52.7 49.029,52.4 48.828,52.386C21.596,50.551 0,27.812 0,0.122" style="fill:rgb(134,185,29);fill-rule:nonzero;"/>
            </g>
            <g transform="matrix(0,-1,-1,0,150.316,333.535)">
                <path d="M-1.042,-1.042C-1.617,-1.042 -2.084,-0.576 -2.084,0C-2.084,0.575 -1.617,1.042 -1.042,1.042C-0.467,1.042 0,0.575 0,0C0,-0.576 -0.467,-1.042 -1.042,-1.042" style="fill:rgb(134,185,29);fill-rule:nonzero;"/>
            </g>
            <g transform="matrix(0,-1,-1,0,119.415,432.738)">
                <path d="M-1.039,-1.039C-1.613,-1.039 -2.078,-0.574 -2.078,0C-2.078,0.574 -1.613,1.039 -1.039,1.039C-0.465,1.039 0,0.574 0,0C0,-0.574 -0.465,-1.039 -1.039,-1.039" style="fill:rgb(134,185,29);fill-rule:nonzero;"/>
            </g>
        </g>
    </g>
</svg>
